The Hitcher 2007 720p BRRip H264 AAC-Rx(Phoenix-RG).mp4
      Format : MPEG-4 / AVC
      File size : 1.36 GiB
      Duration : 1h 23mn
      Format profile : High@L4.1
      Bit rate : 2 000 Kbps
      Width : 1 280 pixels
      Height : 536 pixels
      Display aspect ratio : 2.35
      Frame rate : 23.976 fps
      Resolution : 24 bits
      Colorimetry : 4:2:0
      Scan type : Progressive
      Bits/(Pixel*Frame) : 0.122
      Stream size : 1.17 GiB (86%)
      
     
VIDEO:
     
      Format : AAC LC
      Format/Info : Advanced Audio Codec
      Duration : 1h 23mn
      Bit rate : 321 Kbps
      Channel(s) : 6 channels
      Channel positions : Front: L C R, Rear: L R, LFE
      Sampling rate : 48.0 KHz
      Resolution : 16 bits
      Stream size : 192 MiB (14%)

SCREEN:
 
http://img101.imageshack.us/img101/8272/vlcsnap2010090209h30m50.jpg
 
http://img819.imageshack.us/img819/5286/vlcsnap2010090209h29m30.jpg
 
http://img507.imageshack.us/img507/3483/vlcsnap2010090209h31m05.jpg